<?xml version="1.0" encoding="utf-8"?>
<svg width="auto" height="auto" viewBox="0 0 1200 300" version="1.1"
  xmlns:xlink="http://www.w3.org/1999/xlink" xmlns="http://www.w3.org/2000/svg">
  <defs>
    <linearGradient gradientUnits="userSpaceOnUse" x1="1075.51" y1="66.67969" x2="1101.3278"
      y2="300" id="gradient_1">
      <stop offset="0%" stop-color="#FFFFFF" />
      <stop offset="100%" stop-color="#DADEF0" />
    </linearGradient>
    <radialGradient gradientUnits="objectBoundingBox" cx="50%" cy="0%" fx="50%" fy="0%" r="100%"
      gradientTransform="translate(0.5,0),rotate(90.00008),translate(-0.5,-0)" id="gradient_2">
      <stop offset="0%" stop-color="#006FFF" />
      <stop offset="100%" stop-color="#003C9E" />
    </radialGradient>
    <linearGradient gradientUnits="userSpaceOnUse" x1="71.352554" y1="284.4161" x2="219.33788"
      y2="122.74938" id="gradient_3">
      <stop offset="0%" stop-color="#C2C4CE" />
      <stop offset="39.697%" stop-color="#D6D9E2" />
      <stop offset="100%" stop-color="#FFFFFF" />
    </linearGradient>
    <linearGradient gradientUnits="userSpaceOnUse" x1="8.074219" y1="15.750004" x2="54.386734"
      y2="118.45314" id="gradient_4">
      <stop offset="0%" stop-color="#29CEF2" />
      <stop offset="51.984097%" stop-color="#D600AA" />
      <stop offset="100%" stop-color="#F65163" />
    </linearGradient>
    <linearGradient gradientUnits="userSpaceOnUse" x1="-3.5821276" y1="47.333267" x2="27.904572"
      y2="10.055577" id="gradient_5">
      <stop offset="0%" stop-color="#5E9624" />
      <stop offset="100%" stop-color="#76BC2D" />
    </linearGradient>
    <linearGradient gradientUnits="userSpaceOnUse" x1="11.868751" y1="17.164604" x2="11.868751"
      y2="0.3878562" id="gradient_6">
      <stop offset="0%" stop-color="#F2F2F2" />
      <stop offset="44%" stop-color="#FBFBFB" />
      <stop offset="100%" stop-color="#FFFFFF" />
    </linearGradient>
    <linearGradient gradientUnits="userSpaceOnUse" x1="19.5" y1="-0.21912904" x2="19.5"
      y2="37.343765" id="gradient_7">
      <stop offset="21.9%" stop-color="#0078D4" />
      <stop offset="100%" stop-color="#005BA1" />
    </linearGradient>
    <linearGradient gradientUnits="userSpaceOnUse" x1="9.912497" y1="0" x2="9.912497" y2="18.977781"
      id="gradient_8">
      <stop offset="19.1%" stop-color="#005BA1" />
      <stop offset="100%" stop-color="#003067" />
    </linearGradient>
    <linearGradient gradientUnits="userSpaceOnUse" x1="-0.29666284" y1="2.1481996" x2="13.154005"
      y2="2.1481996" id="gradient_9">
      <stop offset="31.400002%" stop-color="#9CEBFF" />
      <stop offset="100%" stop-color="#50E6FF" />
    </linearGradient>
    <linearGradient gradientUnits="userSpaceOnUse" x1="0" y1="7.4696584" x2="13.413831"
      y2="7.4696584" id="gradient_10">
      <stop offset="35.7%" stop-color="#50E6FF" />
      <stop offset="100%" stop-color="#32BEDD" />
    </linearGradient>
    <linearGradient gradientUnits="userSpaceOnUse" x1="1.7057457E-06" y1="2.1474025" x2="14.234994"
      y2="2.1474025" id="gradient_11">
      <stop offset="31.400002%" stop-color="#9CEBFF" />
      <stop offset="100%" stop-color="#50E6FF" />
    </linearGradient>
    <linearGradient gradientUnits="userSpaceOnUse" x1="6.707894" y1="-0.17216939" x2="6.707894"
      y2="14.499821" id="gradient_12">
      <stop offset="35.7%" stop-color="#50E6FF" />
      <stop offset="100%" stop-color="#32BEDD" />
    </linearGradient>
    <linearGradient gradientUnits="userSpaceOnUse" x1="8.074218" y1="15.750004" x2="54.386726"
      y2="118.45314" id="gradient_13">
      <stop offset="0%" stop-color="#29CEF2" />
      <stop offset="51.984097%" stop-color="#D600AA" />
      <stop offset="100%" stop-color="#F65163" />
    </linearGradient>
    <linearGradient gradientUnits="userSpaceOnUse" x1="17.789974" y1="33.01604" x2="17.789974"
      y2="-1.2073684" id="gradient_14">
      <stop offset="0%" stop-color="#1B93EB" />
      <stop offset="21%" stop-color="#2095EB" />
      <stop offset="44%" stop-color="#2E9CED" />
      <stop offset="69%" stop-color="#45A7EF" />
      <stop offset="95%" stop-color="#64B6F1" />
      <stop offset="100%" stop-color="#6BB9F2" />
    </linearGradient>
    <linearGradient gradientUnits="userSpaceOnUse" x1="54.410236" y1="55.142258" x2="54.410236"
      y2="-0.8538221" id="gradient_15">
      <stop offset="14.999998%" stop-color="#CCCCCC" />
      <stop offset="100%" stop-color="#707070" />
    </linearGradient>
    <radialGradient gradientUnits="objectBoundingBox" cx="50%" cy="0%" fx="50%" fy="0%" r="100%"
      gradientTransform="translate(0.5,0),scale(0.6582567,1),rotate(90.00008),translate(-0.5,-0)"
      id="gradient_16">
      <stop offset="0%" stop-color="#006FFF" />
      <stop offset="100%" stop-color="#003C9E" />
    </radialGradient>
    <linearGradient gradientUnits="userSpaceOnUse" x1="-3.0181174" y1="39.880585" x2="23.510965"
      y2="8.472315" id="gradient_17">
      <stop offset="0%" stop-color="#5E9624" />
      <stop offset="100%" stop-color="#76BC2D" />
    </linearGradient>
    <linearGradient gradientUnits="userSpaceOnUse" x1="60.12115" y1="234.31575" x2="184.81252"
      y2="101.126884" id="gradient_18">
      <stop offset="0%" stop-color="#C2C4CE" />
      <stop offset="39.697%" stop-color="#D6D9E2" />
      <stop offset="100%" stop-color="#FFFFFF" />
    </linearGradient>
    <linearGradient gradientUnits="userSpaceOnUse" x1="6.625002" y1="13.500006" x2="44.625027"
      y2="101.53129" id="gradient_19">
      <stop offset="0%" stop-color="#29CEF2" />
      <stop offset="51.984097%" stop-color="#D600AA" />
      <stop offset="100%" stop-color="#F65163" />
    </linearGradient>
    <linearGradient gradientUnits="userSpaceOnUse" x1="16.000114" y1="30.851658" x2="16.000114"
      y2="0.6971326" id="gradient_20">
      <stop offset="0%" stop-color="#F2F2F2" />
      <stop offset="44%" stop-color="#FBFBFB" />
      <stop offset="100%" stop-color="#FFFFFF" />
    </linearGradient>
    <linearGradient gradientUnits="userSpaceOnUse" x1="16.00001" y1="-0.18782495" x2="16.00001"
      y2="32.00895" id="gradient_21">
      <stop offset="21.9%" stop-color="#0078D4" />
      <stop offset="100%" stop-color="#005BA1" />
    </linearGradient>
    <linearGradient gradientUnits="userSpaceOnUse" x1="8.133333" y1="0" x2="8.133333" y2="16.26667"
      id="gradient_22">
      <stop offset="19.1%" stop-color="#005BA1" />
      <stop offset="100%" stop-color="#003067" />
    </linearGradient>
    <linearGradient gradientUnits="userSpaceOnUse" x1="-0.24341574" y1="1.8413149" x2="10.793034"
      y2="1.8413149" id="gradient_23">
      <stop offset="31.400002%" stop-color="#9CEBFF" />
      <stop offset="100%" stop-color="#50E6FF" />
    </linearGradient>
    <linearGradient gradientUnits="userSpaceOnUse" x1="0" y1="6.402567" x2="11.006224" y2="6.402567"
      id="gradient_24">
      <stop offset="35.7%" stop-color="#50E6FF" />
      <stop offset="100%" stop-color="#32BEDD" />
    </linearGradient>
    <linearGradient gradientUnits="userSpaceOnUse" x1="1.3995873E-06" y1="1.8406315" x2="11.680004"
      y2="1.8406315" id="gradient_25">
      <stop offset="31.400002%" stop-color="#9CEBFF" />
      <stop offset="100%" stop-color="#50E6FF" />
    </linearGradient>
    <linearGradient gradientUnits="userSpaceOnUse" x1="5.503916" y1="-0.14757387" x2="5.503916"
      y2="12.428427" id="gradient_26">
      <stop offset="35.7%" stop-color="#50E6FF" />
      <stop offset="100%" stop-color="#32BEDD" />
    </linearGradient>
    <linearGradient gradientUnits="userSpaceOnUse" x1="6.6250014" y1="13.500006" x2="44.625023"
      y2="101.53129" id="gradient_27">
      <stop offset="0%" stop-color="#29CEF2" />
      <stop offset="51.984097%" stop-color="#D600AA" />
      <stop offset="100%" stop-color="#F65163" />
    </linearGradient>
    <linearGradient gradientUnits="userSpaceOnUse" x1="14.596909" y1="28.299475" x2="14.596909"
      y2="-1.0348876" id="gradient_28">
      <stop offset="0%" stop-color="#1B93EB" />
      <stop offset="21%" stop-color="#2095EB" />
      <stop offset="44%" stop-color="#2E9CED" />
      <stop offset="69%" stop-color="#45A7EF" />
      <stop offset="95%" stop-color="#64B6F1" />
      <stop offset="100%" stop-color="#6BB9F2" />
    </linearGradient>
    <linearGradient gradientUnits="userSpaceOnUse" x1="82.84016" y1="322.86066" x2="254.65077"
      y2="139.34143" id="gradient_29">
      <stop offset="0%" stop-color="#C2C4CE" />
      <stop offset="39.697%" stop-color="#D6D9E2" />
      <stop offset="100%" stop-color="#FFFFFF" />
    </linearGradient>
    <linearGradient gradientUnits="userSpaceOnUse" x1="9.128504" y1="18.601484" x2="61.488243"
      y2="139.89865" id="gradient_30">
      <stop offset="0%" stop-color="#29CEF2" />
      <stop offset="51.984097%" stop-color="#D600AA" />
      <stop offset="100%" stop-color="#F65163" />
    </linearGradient>
    <linearGradient gradientUnits="userSpaceOnUse" x1="-4.158843" y1="54.953815" x2="32.397152"
      y2="11.674503" id="gradient_31">
      <stop offset="0%" stop-color="#5E9624" />
      <stop offset="100%" stop-color="#76BC2D" />
    </linearGradient>
    <linearGradient gradientUnits="userSpaceOnUse" x1="13.779595" y1="19.92806" x2="13.779595"
      y2="0.45029998" id="gradient_32">
      <stop offset="0%" stop-color="#F2F2F2" />
      <stop offset="44%" stop-color="#FBFBFB" />
      <stop offset="100%" stop-color="#FFFFFF" />
    </linearGradient>
    <linearGradient gradientUnits="userSpaceOnUse" x1="9.128502" y1="18.601484" x2="61.488228"
      y2="139.89865" id="gradient_33">
      <stop offset="0%" stop-color="#29CEF2" />
      <stop offset="51.984097%" stop-color="#D600AA" />
      <stop offset="100%" stop-color="#F65163" />
    </linearGradient>
    <linearGradient gradientUnits="userSpaceOnUse" x1="22.046198" y1="-0.2588016" x2="22.046198"
      y2="44.104725" id="gradient_34">
      <stop offset="21.9%" stop-color="#0078D4" />
      <stop offset="100%" stop-color="#005BA1" />
    </linearGradient>
    <linearGradient gradientUnits="userSpaceOnUse" x1="11.20681" y1="0" x2="11.20681" y2="22.41364"
      id="gradient_35">
      <stop offset="19.1%" stop-color="#005BA1" />
      <stop offset="100%" stop-color="#003067" />
    </linearGradient>
    <linearGradient gradientUnits="userSpaceOnUse" x1="-0.33539927" y1="2.5371244" x2="14.871575"
      y2="2.5371244" id="gradient_36">
      <stop offset="31.400002%" stop-color="#9CEBFF" />
      <stop offset="100%" stop-color="#50E6FF" />
    </linearGradient>
    <linearGradient gradientUnits="userSpaceOnUse" x1="0" y1="8.822016" x2="15.165328" y2="8.822016"
      id="gradient_37">
      <stop offset="35.7%" stop-color="#50E6FF" />
      <stop offset="100%" stop-color="#32BEDD" />
    </linearGradient>
    <linearGradient gradientUnits="userSpaceOnUse" x1="1.9284726E-06" y1="2.536183" x2="16.093721"
      y2="2.536183" id="gradient_38">
      <stop offset="31.400002%" stop-color="#9CEBFF" />
      <stop offset="100%" stop-color="#50E6FF" />
    </linearGradient>
    <linearGradient gradientUnits="userSpaceOnUse" x1="7.583772" y1="-0.20334017" x2="7.583772"
      y2="17.124971" id="gradient_39">
      <stop offset="35.7%" stop-color="#50E6FF" />
      <stop offset="100%" stop-color="#32BEDD" />
    </linearGradient>
    <linearGradient gradientUnits="userSpaceOnUse" x1="9.128505" y1="18.601484" x2="61.488247"
      y2="139.89865" id="gradient_40">
      <stop offset="0%" stop-color="#29CEF2" />
      <stop offset="51.984097%" stop-color="#D600AA" />
      <stop offset="100%" stop-color="#F65163" />
    </linearGradient>
    <linearGradient gradientUnits="userSpaceOnUse" x1="20.112892" y1="38.99349" x2="20.112892"
      y2="-1.4259585" id="gradient_41">
      <stop offset="0%" stop-color="#1B93EB" />
      <stop offset="21%" stop-color="#2095EB" />
      <stop offset="44%" stop-color="#2E9CED" />
      <stop offset="69%" stop-color="#45A7EF" />
      <stop offset="95%" stop-color="#64B6F1" />
      <stop offset="100%" stop-color="#6BB9F2" />
    </linearGradient>
    <filter filterUnits="userSpaceOnUse" color-interpolation-filters="sRGB" id="filter_1">
      <feFlood flood-opacity="0" result="BackgroundImageFix" />
      <feColorMatrix in="SourceAlpha" type="matrix"
        values="0 0 0 0 0 0 0 0 0 0 0 0 0 0 0 0 0 0 127 0" />
      <feOffset dx="0" dy="2" />
      <feGaussianBlur stdDeviation="2" />
      <feColorMatrix type="matrix"
        values="0 0 0 0 0.39215687 0 0 0 0 0.39215687 0 0 0 0 0.39215687 0 0 0 0.49803922 0" />
      <feBlend mode="normal" in2="BackgroundImageFix" result="effect0_dropShadow" />
      <feBlend mode="normal" in="SourceGraphic" in2="effect0_dropShadow" result="shape" />
    </filter>
  </defs>
  <g id="WinCommServ">
    <path
      d="M23.999 0L1176 0Q1176.59 0 1177.18 0.0289078Q1177.77 0.0578157 1178.35 0.115562Q1178.94 0.173308 1179.52 0.259753Q1180.1 0.346198 1180.68 0.461134Q1181.26 0.57607 1181.83 0.71922Q1182.4 0.86237 1182.97 1.03339Q1183.53 1.20441 1184.09 1.40288Q1184.64 1.60136 1185.18 1.82681Q1185.73 2.05227 1186.26 2.30416Q1186.79 2.55605 1187.31 2.83377Q1187.83 3.11149 1188.34 3.41437Q1188.84 3.71725 1189.33 4.04456Q1189.82 4.37187 1190.3 4.72282Q1190.77 5.07377 1191.23 5.44752Q1191.68 5.82127 1192.12 6.21691Q1192.55 6.61256 1192.97 7.02914Q1193.39 7.44573 1193.78 7.88226Q1194.18 8.31878 1194.55 8.77419Q1194.93 9.22961 1195.28 9.70281Q1195.63 10.176 1195.96 10.6659Q1196.28 11.1557 1196.59 11.661Q1196.89 12.1664 1197.17 12.6859Q1197.44 13.2055 1197.7 13.7381Q1197.95 14.2707 1198.17 14.815Q1198.4 15.3593 1198.6 15.914Q1198.8 16.4687 1198.97 17.0325Q1199.14 17.5962 1199.28 18.1677Q1199.42 18.7392 1199.54 19.317Q1199.65 19.8948 1199.74 20.4776Q1199.83 21.0604 1199.88 21.6467Q1199.94 22.233 1199.97 22.8214Q1200 23.4099 1200 23.999L1200 276.001Q1200 276.59 1199.97 277.179Q1199.94 277.767 1199.88 278.353Q1199.83 278.94 1199.74 279.522Q1199.65 280.105 1199.54 280.683Q1199.42 281.261 1199.28 281.832Q1199.14 282.404 1198.97 282.968Q1198.8 283.531 1198.6 284.086Q1198.4 284.641 1198.17 285.185Q1197.95 285.729 1197.7 286.262Q1197.44 286.794 1197.17 287.314Q1196.89 287.834 1196.59 288.339Q1196.28 288.844 1195.96 289.334Q1195.63 289.824 1195.28 290.297Q1194.93 290.77 1194.55 291.226Q1194.18 291.681 1193.78 292.118Q1193.39 292.554 1192.97 292.971Q1192.55 293.387 1192.12 293.783Q1191.68 294.179 1191.23 294.552Q1190.77 294.926 1190.3 295.277Q1189.82 295.628 1189.33 295.955Q1188.84 296.283 1188.34 296.586Q1187.83 296.889 1187.31 297.166Q1186.79 297.444 1186.26 297.696Q1185.73 297.948 1185.18 298.173Q1184.64 298.399 1184.09 298.597Q1183.53 298.796 1182.97 298.967Q1182.4 299.138 1181.83 299.281Q1181.26 299.424 1180.68 299.539Q1180.1 299.654 1179.52 299.74Q1178.94 299.827 1178.35 299.884Q1177.77 299.942 1177.18 299.971Q1176.59 300 1176 300L23.999 300Q23.4099 300 22.8214 299.971Q22.233 299.942 21.6467 299.884Q21.0604 299.827 20.4776 299.74Q19.8948 299.654 19.317 299.539Q18.7392 299.424 18.1677 299.281Q17.5962 299.138 17.0325 298.967Q16.4687 298.796 15.914 298.597Q15.3593 298.399 14.815 298.173Q14.2707 297.948 13.7381 297.696Q13.2055 297.444 12.6859 297.166Q12.1664 296.888 11.661 296.586Q11.1557 296.283 10.6659 295.955Q10.176 295.628 9.70281 295.277Q9.22961 294.926 8.77419 294.552Q8.31878 294.179 7.88226 293.783Q7.44573 293.387 7.02914 292.971Q6.61256 292.554 6.21691 292.118Q5.82127 291.681 5.44752 291.226Q5.07377 290.77 4.72282 290.297Q4.37187 289.824 4.04456 289.334Q3.71725 288.844 3.41437 288.339Q3.11149 287.834 2.83377 287.314Q2.55605 286.794 2.30416 286.262Q2.05227 285.729 1.82681 285.185Q1.60136 284.641 1.40288 284.086Q1.20441 283.531 1.03339 282.968Q0.86237 282.404 0.71922 281.832Q0.57607 281.261 0.461134 280.683Q0.346198 280.105 0.259753 279.522Q0.173308 278.94 0.115562 278.353Q0.0578157 277.767 0.0289078 277.179Q0 276.59 0 276.001L0 23.999Q0 23.4099 0.0289078 22.8214Q0.0578157 22.233 0.115562 21.6467Q0.173308 21.0604 0.259753 20.4776Q0.346198 19.8948 0.461134 19.317Q0.57607 18.7392 0.71922 18.1677Q0.86237 17.5962 1.03339 17.0325Q1.20441 16.4687 1.40288 15.914Q1.60136 15.3593 1.82681 14.815Q2.05227 14.2707 2.30416 13.7381Q2.55605 13.2055 2.83377 12.6859Q3.11149 12.1664 3.41437 11.661Q3.71725 11.1557 4.04456 10.6659Q4.37187 10.176 4.72282 9.70281Q5.07377 9.22961 5.44752 8.77419Q5.82127 8.31878 6.21691 7.88226Q6.61256 7.44573 7.02914 7.02914Q7.44573 6.61256 7.88226 6.21691Q8.31878 5.82127 8.77419 5.44752Q9.22961 5.07377 9.70281 4.72282Q10.176 4.37187 10.6659 4.04456Q11.1557 3.71725 11.661 3.41437Q12.1664 3.11149 12.6859 2.83377Q13.2055 2.55605 13.7381 2.30416Q14.2707 2.05227 14.815 1.82681Q15.3593 1.60136 15.914 1.40288Q16.4687 1.20441 17.0325 1.03339Q17.5962 0.86237 18.1677 0.71922Q18.7392 0.57607 19.317 0.461134Q19.8948 0.346198 20.4776 0.259753Q21.0604 0.173308 21.6467 0.115562Q22.233 0.0578157 22.8214 0.0289078Q23.4099 0 23.999 0Z"
      id="Background" fill="url(#gradient_1)" fill-rule="evenodd" stroke="none" />
    <g id="Icons" transform="translate(136 22)">
      <g id="ui-logo-new" transform="translate(672 0)">
        <path
          d="M0 80C0 51.9974 0 37.9961 5.44967 27.3005C10.2433 17.8924 17.8924 10.2433 27.3005 5.44967C37.9961 0 51.9974 0 80 0L176 0C204.003 0 218.004 0 228.7 5.44967C238.108 10.2433 245.757 17.8924 250.55 27.3005C256 37.9961 256 51.9974 256 80L256 176C256 204.003 256 218.004 250.55 228.7C245.757 238.108 238.108 245.757 228.7 250.55C218.004 256 204.003 256 176 256L80 256C51.9974 256 37.9961 256 27.3005 250.55C17.8924 245.757 10.2433 238.108 5.44967 228.7C0 218.004 0 204.003 0 176L0 80L0 80Z"
          id="Shape" fill="url(#gradient_2)" fill-rule="evenodd" stroke="none" />
        <g id="MsgBox" transform="translate(20 36.5)">
          <path
            d="M0 11.2515L0 145.021C0.486598 151.266 5.58697 156.068 11.693 156.03L90.7561 156.03C91.1805 156.067 91.5909 156.204 91.9559 156.429L107.992 167.403L125.632 179.4L131.986 183.665C132.563 184.112 133.245 184.393 133.963 184.48C136.294 184.707 138.387 183.011 138.711 180.631L138.711 158.093C138.719 157.574 138.936 157.082 139.311 156.734C139.685 156.385 140.184 156.212 140.688 156.255L204.172 156.255C210.323 156.185 215.429 151.358 216 145.073L216 11.2515C215.395 4.97304 210.319 0.144654 204.172 0L11.693 1.03335e-06C5.56352 0.128371 0.517546 4.98381 0 11.2515L0 11.2515Z"
            id="Shape" fill="url(#gradient_3)" fill-rule="evenodd" stroke="none" />
          <g id="Content" transform="translate(9 13.499999)">
            <g id="Col-3" transform="translate(139.5 0)">
              <path
                d="M54.2934 126L4.20662 126C1.88337 126 0 124.014 0 121.564L0 4.4361C0.00138907 1.98345 1.88588 -0.00146661 4.20913 0L54.2934 0C56.6166 -3.52549e-06 58.5 1.98611 58.5 4.4361L58.5 121.564C58.5 124.014 56.6166 126 54.2934 126L54.2934 126Z"
                id="Shape" fill="url(#gradient_4)" fill-opacity="0.3" fill-rule="evenodd"
                stroke="none" filter="url(#filter_1)" />
              <g id="Success-Check" transform="translate(9 45.630505)">
                <path d="M0 0L37.98 0L37.98 37.98L0 37.98L0 0Z" id="Rectangle" fill="none"
                  fill-rule="evenodd" stroke="none" />
                <g id="Group-2">
                  <path
                    d="M0 18.706C0 8.37496 8.49483 0 18.9737 0C29.4527 0 37.9475 8.37496 37.9475 18.706C37.9475 29.037 29.4527 37.412 18.9737 37.412C8.49483 37.412 0 29.037 0 18.706Z"
                    id="Circle" fill="url(#gradient_5)" fill-rule="evenodd" stroke="none" />
                  <path
                    d="M29.9725 10.6736C29.4157 10.1168 28.6606 9.80425 27.8733 9.80425C27.0858 9.80425 26.3306 10.1168 25.7738 10.6736L15.9865 20.4537L12.4513 16.9523C12.3686 16.8295 12.2751 16.7144 12.172 16.6083C11.6191 16.0536 10.8691 15.7402 10.086 15.7363C9.30266 15.7324 8.54959 16.0386 7.9913 16.5879C7.43271 17.1369 7.11416 17.8849 7.10517 18.6679C7.09588 19.4513 7.39675 20.2062 7.94215 20.7684L7.90649 20.804L13.896 26.7387C14.4531 27.2952 15.2086 27.6078 15.9961 27.6078C16.7837 27.6078 17.5388 27.2952 18.0962 26.7387L29.9638 14.8765L29.9728 14.8693C30.2485 14.5939 30.4673 14.267 30.6162 13.9068C30.7654 13.5469 30.8425 13.1612 30.8425 12.7713C30.8422 12.3817 30.7654 11.9958 30.6162 11.6358C30.467 11.2759 30.2482 10.949 29.9725 10.6736L29.9725 10.6736L29.9725 10.6736Z"
                    id="Shape" fill="url(#gradient_6)" fill-rule="evenodd" stroke="none" />
                </g>
              </g>
            </g>
            <g id="Col-2" transform="translate(69.75 0)">
              <path
                d="M54.2934 126L4.20662 126C1.88337 126 0 124.014 0 121.564L0 4.4361C0.00138907 1.98345 1.88588 -0.00146661 4.20913 0L54.2934 0C56.6166 -3.52549e-06 58.5 1.98611 58.5 4.4361L58.5 121.564C58.5 124.014 56.6166 126 54.2934 126L54.2934 126Z"
                id="Shape" fill="url(#gradient_4)" fill-opacity="0.3" fill-rule="evenodd"
                stroke="none" filter="url(#filter_1)" />
              <g id="Reboot-Icon" transform="translate(9.750036 44.333294)">
                <path
                  d="M39 19.9595L39 17.4197C39.0006 16.9139 38.6644 16.4647 38.1659 16.3053L33.7697 14.8945C33.5978 14.838 33.4606 14.7112 33.3948 14.5481L32.448 12.1773C32.3874 12.023 32.396 11.8515 32.4718 11.7036L34.4803 7.81978C34.7136 7.36831 34.6211 6.82379 34.2507 6.46744L32.2833 4.57667C31.9133 4.21831 31.3463 4.12911 30.8772 4.35545L26.8515 6.29005C26.6987 6.36355 26.5207 6.37113 26.3618 6.31092L23.8897 5.39475C23.727 5.33566 23.599 5.21157 23.5387 5.05458L21.8617 0.761734C21.6832 0.304232 21.2294 0.000898052 20.722 6.99702e-08L18.0787 0C17.5595 0.00039663 17.0972 0.316753 16.926 0.788865L15.4592 4.84797C15.405 4.99878 15.2891 5.12168 15.1385 5.18814L12.6577 6.28796C12.4911 6.36423 12.2977 6.36423 12.1312 6.28796L8.1315 4.35545C7.66483 4.12726 7.09905 4.21123 6.72534 4.56415L4.75367 6.46118C4.38314 6.81918 4.29076 7.36485 4.524 7.81769L6.53684 11.7015C6.61263 11.8494 6.62126 12.021 6.56067 12.1752L5.60734 14.5585C5.5443 14.7148 5.41504 14.8378 5.252 14.8966L0.790837 16.5077C0.314307 16.6789 -0.00122228 17.1177 3.4223e-06 17.6075L3.4223e-06 20.1453C-0.000358825 20.6504 0.335917 21.099 0.834037 21.2576L5.23684 22.6726C5.40906 22.7286 5.54645 22.8555 5.61167 23.019L6.56067 25.3918C6.62126 25.5461 6.61263 25.7177 6.53684 25.8656L4.524 29.7327C4.28674 30.1828 4.3739 30.7286 4.74067 31.0892L6.7145 32.9904C7.08758 33.3445 7.65422 33.4286 8.12067 33.1991L12.1398 31.2624C12.2928 31.1873 12.4719 31.179 12.6317 31.2395L15.1125 32.1556C15.2725 32.2156 15.399 32.3375 15.4613 32.4916L17.1232 36.5862C17.3055 37.0369 17.7563 37.3336 18.2585 37.3333L20.9192 37.3333C21.4442 37.3332 21.9102 37.0096 22.0762 36.5299L23.543 32.2954C23.6009 32.1289 23.7327 31.9958 23.9027 31.9323L26.3618 31.0224C26.5207 30.9622 26.6987 30.9698 26.8515 31.0433L30.8772 32.9758C31.3465 33.2008 31.9127 33.1117 32.2833 32.7546L34.2333 30.8763C34.6094 30.5134 34.6972 29.9573 34.45 29.5031L32.4718 25.8614C32.3913 25.712 32.381 25.5365 32.4437 25.3793L33.3927 23.0002C33.4554 22.8433 33.5847 22.7195 33.748 22.66L38.2027 21.0531C38.6791 20.8843 38.9969 20.4485 39 19.9595L39 19.9595ZM19.5281 28.2196C15.5187 28.2205 11.9036 25.8948 10.3686 22.3271C8.83365 18.7594 9.68118 14.6524 12.516 11.9213C15.3507 9.19025 19.6144 8.37299 23.3187 9.85066C27.0231 11.3283 29.4384 14.8099 29.4384 18.6718C29.4384 23.9416 25.0034 28.2162 19.5302 28.2196L19.5281 28.2196Z"
                  id="Shape" fill="url(#gradient_7)" fill-rule="evenodd" stroke="none" />
                <path
                  d="M9.61545 18.5568C9.61545 13.3162 14.0534 9.0679 19.528 9.0679C25.0025 9.0679 29.4404 13.3162 29.4404 18.5568C29.4404 23.7974 25.0025 28.0457 19.528 28.0457C14.0534 28.0457 9.61545 23.7974 9.61545 18.5568Z"
                  id="Circle" fill="url(#gradient_8)" fill-rule="evenodd" stroke="none" />
                <g id="Group" transform="translate(6.647496 7.406983)">
                  <path
                    d="M21.0273 3.55857C20.8692 3.47768 20.7088 3.40094 20.5442 3.32627C17.8954 2.04425 14.7915 1.94261 12.0573 3.04835C10.8034 3.18038 9.59531 3.57554 8.51917 4.20568C8.35519 4.29729 8.15899 4.32007 7.97689 4.26864C7.79479 4.21721 7.64293 4.09612 7.55717 3.93398C7.308 3.45901 7.05667 2.98405 6.7945 2.48213C6.63183 2.17259 6.74618 1.79534 7.05667 1.61724C10.1397 -0.307955 14.0563 -0.529605 17.3548 1.03442C18.7331 1.64863 19.9788 2.50481 21.0273 3.55857L21.0273 3.55857Z"
                    id="Shape" fill="url(#gradient_9)" fill-rule="evenodd" stroke="none" />
                  <path
                    d="M20.5248 16.8638L18.4101 12.8255C18.293 12.599 18.3209 12.3283 18.4822 12.1281C18.6434 11.9279 18.9097 11.8331 19.1684 11.8839L20.4338 12.139C21.039 9.92934 20.4802 7.57595 18.9366 5.83384C17.3003 3.83001 14.6992 2.7768 12.0574 3.04836C14.7916 1.94262 17.8955 2.04426 20.5443 3.32628C20.7089 3.40095 20.8693 3.47769 21.0274 3.55858C23.0161 5.70092 23.9997 8.5303 23.7488 11.3861C23.7314 11.8383 23.6946 12.3008 23.6383 12.7737L23.9069 12.8276L24.9253 13.035C25.1831 13.0883 25.3868 13.2773 25.4503 13.5224C25.5138 13.7674 25.4262 14.0257 25.2243 14.1882L22.3209 16.4904C22.0739 16.6854 21.8291 16.8824 21.5778 17.0795C21.4157 17.2065 21.2019 17.2561 20.9971 17.2141C20.7922 17.1722 20.6184 17.0432 20.5248 16.8638L20.5248 16.8638Z"
                    id="Shape" fill="url(#gradient_10)" fill-rule="evenodd" stroke="none" />
                  <g id="Group" transform="translate(0 5.070575)">
                    <path
                      d="M4.44381 13.6701C4.60197 13.751 4.76231 13.8278 4.92914 13.9024C7.57796 15.1845 10.6818 15.2861 13.416 14.1804C14.67 14.0486 15.8781 13.6534 16.9541 13.023C17.1181 12.9314 17.3143 12.9086 17.4964 12.9601C17.6785 13.0115 17.8304 13.1326 17.9161 13.2947L18.6788 14.7466C18.8415 15.0561 18.7271 15.4334 18.4166 15.6115C15.3336 17.5367 11.417 17.7583 8.11847 16.1943C6.73976 15.5798 5.49341 14.7237 4.4438 13.6701L4.44381 13.6701Z"
                      id="Shape" fill="url(#gradient_11)" fill-rule="evenodd" stroke="none" />
                    <path
                      d="M4.94856 0.365015L7.06106 4.40323C7.17821 4.6298 7.15025 4.90048 6.98901 5.10069C6.82776 5.30091 6.56143 5.39567 6.30273 5.34486L5.03739 5.08975C4.43215 7.29943 4.99096 9.65282 6.53456 11.3949C8.17132 13.3994 10.7734 14.4527 13.4159 14.1804C10.6817 15.2862 7.57788 15.1845 4.92906 13.9025C4.76223 13.8278 4.6019 13.7511 4.44373 13.6702C2.45475 11.5281 1.47171 8.69833 1.72456 5.84264C1.74045 5.39049 1.77728 4.92797 1.83506 4.45509L1.5664 4.40116L0.548063 4.19375C0.289127 4.14194 0.0840382 3.9528 0.0203148 3.70703C-0.0434087 3.46126 0.0454853 3.20227 0.249063 3.04057C1.23273 2.26072 2.18606 1.50576 3.15023 0.738348L3.89339 0.149312C4.05588 0.0222079 4.26988 -0.0273536 4.47509 0.0145956C4.6803 0.0565458 4.85449 0.185464 4.94856 0.365015L4.94856 0.365015Z"
                      id="Shape" fill="url(#gradient_12)" fill-rule="evenodd" stroke="none" />
                  </g>
                </g>
              </g>
            </g>
            <g id="Col-1">
              <path
                d="M54.2934 126L4.20662 126C1.88336 126 0 124.014 0 121.564L0 4.4361C0.00138906 1.98345 1.88588 -0.00146661 4.20913 0L54.2934 0C56.6166 -3.52549e-06 58.5 1.98611 58.5 4.4361L58.5 121.564C58.5 124.014 56.6166 126 54.2934 126L54.2934 126Z"
                id="Shape" fill="url(#gradient_13)" fill-opacity="0.3" fill-rule="evenodd"
                stroke="none" filter="url(#filter_1)" />
              <g id="Shield" transform="translate(9.750036 44.333294)">
                <path
                  d="M39 17.43C39 27.4622 23.595 35.5405 20.2521 37.187C19.8609 37.3821 19.362 37.3821 18.9707 37.187C15.5164 35.5405 0 27.4402 0 17.43L0 5.35633C0 4.83108 0.53213 4.40222 1.19817 4.39043C13.2879 4.14896 10.53 0 19.5 0C28.47 0 25.7121 4.14896 37.6907 4.39043C38.3568 4.40236 38.8887 4.83133 38.8886 5.35633L39 17.43Z"
                  id="Shape" fill="#1B93EB" fill-rule="evenodd" stroke="none" />
                <path
                  d="M37.2675 17.5178C37.2675 26.7377 23.1439 34.1356 20.0796 35.6283C19.721 35.8027 19.2682 35.8027 18.9096 35.6283C15.8453 34.1356 1.72175 26.7377 1.72175 17.5178L1.72175 6.54174C1.66558 6.28889 1.7491 6.02916 1.9513 5.8279C2.15349 5.62663 2.45512 5.50298 2.78032 5.48804C13.756 5.24657 11.1375 1.47079 19.4946 1.47079C27.8518 1.47079 25.2053 5.33437 36.2089 5.48804C36.8072 5.51094 37.2814 5.89421 37.2953 6.36613L37.2675 17.5178Z"
                  id="Shape" fill="url(#gradient_14)" fill-rule="evenodd" stroke="none" />
                <path
                  d="M19.5 13.2371C22.775 13.2487 25.5465 15.5561 26.0127 18.6593C26.1133 19.1752 26.5882 19.5463 27.1364 19.5374L30.3469 19.5374C30.6655 19.5447 30.9723 19.4221 31.1909 19.2002C31.4096 18.9783 31.5196 18.678 31.4935 18.3739C30.8361 12.5071 25.6638 8.05858 19.5 8.05858C13.3361 8.05858 8.16384 12.5071 7.50645 18.3739C7.48035 18.678 7.59032 18.9783 7.809 19.2002C8.02767 19.4221 8.33448 19.5447 8.65306 19.5374L11.8636 19.5374C12.4117 19.5463 12.8866 19.1752 12.9872 18.6593C13.4535 15.5561 16.2249 13.2487 19.5 13.2371L19.5 13.2371Z"
                  id="Shape" fill="#C3F1FF" fill-rule="evenodd" stroke="none" />
                <path
                  d="M15.1201 19.5374C15.1201 17.2218 17.0811 15.3446 19.5001 15.3446C21.9192 15.3446 23.8802 17.2218 23.8802 19.5374C23.8802 21.8531 21.9192 23.7303 19.5001 23.7303C17.0811 23.7303 15.1201 21.8531 15.1201 19.5374Z"
                  id="Circle" fill="#FFFFFF" fill-rule="evenodd" stroke="none" />
              </g>
            </g>
          </g>
        </g>
      </g>
      <g id="Windows-Notification-Services-01">
        <path d="M0 0L256 0L256 256L0 256L0 0Z" id="Background" fill="none" fill-rule="evenodd"
          stroke="none" />
        <g id="Icon" transform="translate(4 0)">
          <g id="Monitor" transform="translate(0 56)">
            <g id="Stand" transform="translate(56.1438 144.81647)">
              <path
                d="M97.9215 42.9112C76.1659 39.4788 76.1659 24.0263 76.1659 0L32.6405 0C32.6405 24.8809 32.6405 40.3334 10.8849 42.9112C4.70132 43.8283 0.0971695 49.0193 0 55.1835L108.806 55.1835C108.709 49.0193 104.105 43.8283 97.9214 42.9112L97.9215 42.9112Z"
                id="Shape" fill="url(#gradient_15)" fill-rule="evenodd" stroke="none" />
            </g>
            <g id="Screen">
              <path
                d="M0 14.5979L0 7.29896C0 5.28341 0.722805 3.56303 2.16842 2.13782C3.61403 0.712606 5.35903 0 7.40344 0L212.597 0C214.641 0 216.386 0.712606 217.832 2.13782C219.277 3.56303 220 5.28341 220 7.29896L220 137.518C220 139.533 219.277 141.253 217.832 142.679C216.386 144.104 214.641 144.816 212.597 144.816L7.40344 144.816C5.35903 144.816 3.61403 144.104 2.16842 142.679C0.722805 141.253 0 139.533 0 137.518L0 14.5979Z"
                id="Rectangle" fill="url(#gradient_16)" fill-rule="evenodd" stroke="none" />
              <g id="Success-Check" transform="translate(13.988037 96.534424)">
                <path
                  d="M0 15.7607C0 7.05632 7.15731 0 15.9863 0C24.8153 0 31.9726 7.05632 31.9726 15.7607C31.9726 24.4651 24.8153 31.5214 15.9863 31.5214C7.15731 31.5214 0 24.4651 0 15.7607Z"
                  id="Circle" fill="url(#gradient_17)" fill-rule="evenodd" stroke="none" />
                <g id="Group" transform="translate(5.953369 7.635437)">
                  <path
                    d="M8.39674 13.4101L6.92757 14.8586C6.67735 15.1052 6.27167 15.1052 6.02145 14.8586L0.187661 9.10709C-0.0625545 8.86041 -0.0625533 8.46045 0.187662 8.21377L1.20378 7.21199C1.45399 6.96531 1.85967 6.96531 2.10989 7.21199L8.39674 13.4101L8.39674 13.4101Z"
                    id="Shape" fill="#FFFFFF" fill-rule="evenodd" stroke="none" />
                  <path
                    d="M6.05145 14.8679L4.58228 13.4195L18.0062 0.185014C18.2564 -0.0616712 18.6621 -0.0616712 18.9123 0.185012L19.9284 1.18679C20.1786 1.43347 20.1786 1.83343 19.9284 2.08011L6.95569 14.8697C6.70548 15.1164 6.2998 15.1164 6.04958 14.8697L6.05145 14.8679Z"
                    id="Shape" fill="#F2F2F2" fill-rule="evenodd" stroke="none" />
                </g>
              </g>
              <g id="Text-Lines" transform="translate(56.1994 100.36316)">
                <path
                  d="M59.218 8.19733L5.76501 8.19733C2.45736 7.90661 0 6.15953 0 4.09867C0 2.0378 2.45736 0.290721 5.76502 0L59.2852 0C62.5928 0.290721 65.0502 2.0378 65.0502 4.09867C65.0502 6.15953 62.5928 7.90661 59.2852 8.19733L59.218 8.19733ZM99.0864 19.5838C99.0864 17.2974 96.0814 15.4438 92.3745 15.4438L5.76502 15.4438C2.45737 15.7345 0 17.4816 0 19.5425C0 21.6033 2.45737 23.3504 5.76502 23.6411L92.5088 23.6411C96.1115 23.5971 99.015 21.8061 99.0864 19.5838L99.0864 19.5838Z"
                  id="Shape" fill="#FFFFFF" fill-rule="evenodd" stroke="none" />
              </g>
            </g>
          </g>
          <g id="MsgBox" transform="translate(64 0)">
            <path
              d="M0 9.26953L0 119.476C0.410004 124.62 4.70754 128.577 9.85245 128.545L76.4705 128.545C76.828 128.576 77.1738 128.688 77.4814 128.874L90.9929 137.915L105.857 147.798L111.21 151.312C111.696 151.68 112.271 151.912 112.876 151.983C114.841 152.17 116.604 150.773 116.877 148.812L116.877 130.245C116.883 129.817 117.066 129.412 117.382 129.125C117.698 128.838 118.118 128.695 118.543 128.731L172.034 128.731C177.217 128.673 181.519 124.696 182 119.518L182 9.26953C181.49 4.09703 177.214 0.119173 172.034 0L9.85246 8.51321e-07C4.68778 0.105758 0.436081 4.10591 0 9.26953L0 9.26953Z"
              id="Shape" fill="url(#gradient_18)" fill-rule="evenodd" stroke="none" />
            <g id="Content" transform="translate(12.802734 8)">
              <g id="Col-3" transform="translate(116 0)">
                <path
                  d="M44.5484 108L3.45158 108C1.54533 108 0 106.298 0 104.198L0 3.80237C0.00113975 1.7001 1.54739 -0.00125709 3.45365 0L44.5484 0C46.4547 -3.02185e-06 48 1.70238 48 3.80237L48 104.198C48 106.298 46.4547 108 44.5484 108L44.5484 108Z"
                  id="Shape" fill="url(#gradient_19)" fill-opacity="0.3" fill-rule="evenodd"
                  stroke="none" filter="url(#filter_1)" />
                <g id="Group" transform="translate(8 38)">
                  <path
                    d="M28.3304 0L3.66964 0C1.64296 0 0 1.64296 0 3.66964L0 28.3304C0 30.3571 1.64296 32 3.66964 32L28.3304 32C30.3571 32 32.0002 30.3571 32.0002 28.3304L32.0002 3.66964C32.0002 1.64296 30.3571 0 28.3304 0L28.3304 0Z"
                    id="Shape" fill="url(#gradient_20)" fill-rule="evenodd" stroke="none" />
                  <path
                    d="M23.5719 11.2308C23.2008 10.8597 22.6974 10.6514 22.1726 10.6514C21.6477 10.6514 21.1443 10.8597 20.7732 11.2308L14.2493 17.7499L11.8928 15.416C11.8377 15.3341 11.7753 15.2574 11.7066 15.1867C11.3381 14.817 10.8381 14.6081 10.3162 14.6055C9.79402 14.6029 9.29204 14.807 8.9199 15.1731C8.54756 15.5391 8.33523 16.0377 8.32924 16.5596C8.32304 17.0818 8.52359 17.5849 8.88714 17.9597L8.86337 17.9835L12.8558 21.9393C13.2271 22.3103 13.7307 22.5186 14.2557 22.5186C14.7806 22.5186 15.284 22.3103 15.6555 21.9393L23.5661 14.0324L23.5721 14.0276C23.7559 13.844 23.9017 13.6261 24.001 13.386C24.1004 13.1461 24.1518 12.889 24.1518 12.6291C24.1516 12.3694 24.1004 12.1122 24.001 11.8723C23.9015 11.6323 23.7557 11.4144 23.5719 11.2308L23.5719 11.2308L23.5719 11.2308Z"
                    id="Shape" fill="#0078D4" fill-rule="evenodd" stroke="none" />
                </g>
              </g>
              <g id="Col-2" transform="translate(58 0)">
                <path
                  d="M44.5484 108L3.45158 108C1.54533 108 0 106.298 0 104.198L0 3.80237C0.00113975 1.7001 1.54739 -0.00125709 3.45365 0L44.5484 0C46.4547 -3.02185e-06 48 1.70238 48 3.80237L48 104.198C48 106.298 46.4547 108 44.5484 108L44.5484 108Z"
                  id="Shape" fill="url(#gradient_19)" fill-opacity="0.3" fill-rule="evenodd"
                  stroke="none" filter="url(#filter_1)" />
                <g id="Reboot-Icon" transform="translate(8 38)">
                  <path
                    d="M32 17.1082L32 14.9312C32.0005 14.4977 31.7246 14.1126 31.3156 13.976L27.7085 12.7667C27.5674 12.7183 27.4548 12.6096 27.4009 12.4698L26.624 10.4377C26.5743 10.3055 26.5814 10.1584 26.6436 10.0316L28.2916 6.70267C28.4829 6.3157 28.4071 5.84896 28.1031 5.54352L26.4889 3.92286C26.1853 3.6157 25.7201 3.53924 25.3351 3.73324L22.032 5.39147C21.9067 5.45447 21.7606 5.46097 21.6302 5.40936L19.6018 4.62407C19.4684 4.57342 19.3633 4.46706 19.3138 4.3325L17.9378 0.652915C17.7914 0.26077 17.419 0.000769759 17.0027 5.99745e-08L14.8338 0C14.4078 0.000339969 14.0285 0.271502 13.888 0.67617L12.6845 4.1554C12.64 4.28467 12.5449 4.39001 12.4213 4.44698L10.3858 5.38968C10.2491 5.45505 10.0905 5.45505 9.95378 5.38968L6.67201 3.73324C6.2891 3.53765 5.82486 3.60963 5.51823 3.91213L3.90045 5.53815C3.59642 5.84501 3.52062 6.31273 3.712 6.70088L5.36356 10.0299C5.42575 10.1566 5.43283 10.3037 5.38312 10.4359L4.60089 12.4787C4.54918 12.6127 4.44311 12.7181 4.30934 12.7685L0.648892 14.1495C0.257893 14.2962 -0.00100289 14.6723 2.80804e-06 15.0922L2.80804e-06 17.2674C-0.000294421 17.7004 0.275624 18.0848 0.684338 18.2208L4.29689 19.4336C4.43821 19.4816 4.55094 19.5905 4.60445 19.7306L5.38312 21.7644C5.43283 21.8967 5.42575 22.0437 5.36356 22.1705L3.712 25.4852C3.51732 25.871 3.58885 26.3388 3.88978 26.6479L5.50934 28.2775C5.81545 28.581 6.28039 28.6531 6.66312 28.4564L9.96089 26.7964C10.0864 26.732 10.2333 26.7249 10.3645 26.7767L12.4 27.562C12.5313 27.6134 12.6351 27.7179 12.6862 27.85L14.0498 31.3596C14.1994 31.7459 14.5693 32.0003 14.9813 32L17.1645 32C17.5952 31.9999 17.9776 31.7225 18.1138 31.3113L19.3173 27.6818C19.3648 27.5391 19.473 27.425 19.6125 27.3706L21.6302 26.5906C21.7606 26.539 21.9067 26.5455 22.032 26.6085L25.3351 28.265C25.7203 28.4578 26.1848 28.3815 26.4889 28.0754L28.0889 26.4654C28.3975 26.1544 28.4695 25.6777 28.2667 25.2884L26.6436 22.1669C26.5775 22.0389 26.5691 21.8884 26.6205 21.7537L27.3991 19.7145C27.4506 19.5799 27.5567 19.4739 27.6907 19.4229L31.3458 18.0455C31.7367 17.9008 31.9975 17.5273 32 17.1082L32 17.1082ZM16.023 24.1883C12.7333 24.189 9.76701 22.1955 8.50756 19.1375C7.24811 16.0795 7.94352 12.5592 10.2695 10.2183C12.5955 7.87738 16.0939 7.17687 19.1333 8.44345C22.1728 9.71002 24.1546 12.6942 24.1546 16.0044C24.1546 20.5214 20.5156 24.1853 16.0248 24.1883L16.023 24.1883Z"
                    id="Shape" fill="url(#gradient_21)" fill-rule="evenodd" stroke="none" />
                  <path
                    d="M7.88965 15.9058C7.88965 11.4139 11.5311 7.77246 16.023 7.77246C20.5149 7.77246 24.1563 11.4139 24.1563 15.9058C24.1563 20.3977 20.5149 24.0391 16.023 24.0391C11.5311 24.0391 7.88965 20.3977 7.88965 15.9058Z"
                    id="Circle" fill="url(#gradient_22)" fill-rule="evenodd" stroke="none" />
                  <g id="Group" transform="translate(5.4543457 6.348877)">
                    <path
                      d="M17.2532 3.0502C17.1234 2.98087 16.9919 2.91509 16.8568 2.85109C14.6834 1.75222 12.1366 1.66509 9.89321 2.61287C8.86434 2.72604 7.87309 3.06475 6.9901 3.60487C6.85555 3.6834 6.69457 3.70292 6.54515 3.65884C6.39574 3.61475 6.27114 3.51097 6.20077 3.37198C5.99632 2.96487 5.7901 2.55776 5.57499 2.12754C5.44151 1.86222 5.53534 1.53886 5.7901 1.3862C8.31981 -0.263961 11.5334 -0.453948 14.2399 0.88665C15.3707 1.41312 16.3929 2.14698 17.2532 3.05021L17.2532 3.0502Z"
                      id="Shape" fill="url(#gradient_23)" fill-rule="evenodd" stroke="none" />
                    <path
                      d="M16.8409 14.4547L15.1058 10.9933C15.0096 10.7991 15.0326 10.5671 15.1649 10.3955C15.2972 10.2239 15.5157 10.1427 15.728 10.1862L16.7662 10.4049C17.2628 8.51087 16.8043 6.49369 15.5378 5.00044C14.1951 3.28287 12.0609 2.38012 9.89331 2.61289C12.1367 1.66511 14.6835 1.75223 16.8569 2.85111C16.992 2.91511 17.1235 2.98089 17.2533 3.05022C18.885 4.88651 19.6921 7.3117 19.4862 9.75955C19.472 10.1471 19.4418 10.5436 19.3955 10.9489L19.616 10.9951L20.4515 11.1729C20.6631 11.2185 20.8302 11.3806 20.8823 11.5906C20.9345 11.8007 20.8625 12.0221 20.6969 12.1613L18.3146 14.1347C18.112 14.3018 17.9111 14.4707 17.7049 14.6396C17.5718 14.7485 17.3965 14.791 17.2284 14.755C17.0603 14.719 16.9177 14.6085 16.8409 14.4547L16.8409 14.4547Z"
                      id="Shape" fill="url(#gradient_24)" fill-rule="evenodd" stroke="none" />
                    <g id="Group" transform="translate(0 4.3461914)">
                      <path
                        d="M3.64624 11.7173C3.77602 11.7866 3.90758 11.8524 4.04446 11.9164C6.21786 13.0153 8.76462 13.1024 11.008 12.1546C12.037 12.0417 13.0282 11.703 13.9111 11.1626C14.0457 11.0841 14.2067 11.0646 14.3561 11.1087C14.5055 11.1528 14.6301 11.2566 14.7005 11.3955L15.3262 12.64C15.4597 12.9053 15.3659 13.2287 15.1111 13.3813C12.5814 15.0315 9.36787 15.2215 6.66135 13.8809C5.53011 13.3542 4.50746 12.6203 3.64624 11.7173L3.64624 11.7173Z"
                        id="Shape" fill="url(#gradient_25)" fill-rule="evenodd" stroke="none" />
                      <path
                        d="M4.06036 0.31287L5.79369 3.7742C5.88982 3.96841 5.86687 4.20041 5.73457 4.37202C5.60227 4.54364 5.38374 4.62486 5.17147 4.58132L4.13325 4.36265C3.63663 6.25666 4.09515 8.27385 5.36169 9.76709C6.70468 11.4852 8.8397 12.3881 11.0079 12.1546C8.76451 13.1024 6.21775 13.0153 4.04436 11.9164C3.90747 11.8524 3.77592 11.7866 3.64614 11.7173C2.01415 9.88127 1.20756 7.45571 1.41503 5.00798C1.42806 4.62043 1.45829 4.22398 1.50569 3.81865L1.28525 3.77243L0.449693 3.59465C0.237232 3.55024 0.0689545 3.38812 0.0166685 3.17746C-0.0356174 2.9668 0.0373213 2.7448 0.204359 2.6062C1.01147 1.93776 1.79369 1.29065 2.5848 0.63287L3.19458 0.127981C3.3279 0.0190353 3.5035 -0.023446 3.67187 0.0125105C3.84025 0.0484678 3.98317 0.158969 4.06036 0.31287L4.06036 0.31287Z"
                        id="Shape" fill="url(#gradient_26)" fill-rule="evenodd" stroke="none" />
                    </g>
                  </g>
                </g>
              </g>
              <g id="Col-1">
                <path
                  d="M44.5484 108L3.45158 108C1.54533 108 0 106.298 0 104.198L0 3.80237C0.00113975 1.7001 1.54739 -0.00125709 3.45365 0L44.5484 0C46.4547 -3.02185e-06 48 1.70238 48 3.80237L48 104.198C48 106.298 46.4547 108 44.5484 108L44.5484 108Z"
                  id="Shape" fill="url(#gradient_27)" fill-opacity="0.3" fill-rule="evenodd"
                  stroke="none" filter="url(#filter_1)" />
                <g id="Shield" transform="translate(8 38)">
                  <path
                    d="M32 14.94C32 23.539 19.36 30.4633 16.6171 31.8745C16.2961 32.0418 15.8867 32.0418 15.5657 31.8745C12.7314 30.4633 0 23.5202 0 14.94L0 4.59114C0 4.14093 0.43662 3.77333 0.983118 3.76322C10.9029 3.55625 8.64 0 16 0C23.36 0 21.0971 3.55625 30.9257 3.76323C31.4722 3.77345 31.9087 4.14114 31.9086 4.59114L32 14.94Z"
                    id="Shape" fill="#1B93EB" fill-rule="evenodd" stroke="none" />
                  <path
                    d="M30.5785 15.0153C30.5785 22.9181 18.9899 29.2591 16.4756 30.5386C16.1813 30.688 15.8098 30.688 15.5156 30.5386C13.0013 29.2591 1.41272 22.9181 1.41272 15.0153L1.41272 5.60721C1.36664 5.39047 1.43516 5.16785 1.60107 4.99534C1.76697 4.82283 2.01446 4.71684 2.2813 4.70403C11.287 4.49706 9.13844 1.26068 15.9956 1.26068C22.8527 1.26068 20.6813 4.57232 29.7099 4.70403C30.2008 4.72366 30.5899 5.05218 30.6013 5.45668L30.5785 15.0153Z"
                    id="Shape" fill="url(#gradient_28)" fill-rule="evenodd" stroke="none" />
                  <path
                    d="M15.9999 11.3461C18.6872 11.3561 20.9612 13.3338 21.3437 15.9937C21.4263 16.4359 21.8159 16.754 22.2657 16.7463L24.9 16.7463C25.1614 16.7526 25.4131 16.6475 25.5925 16.4573C25.772 16.2671 25.8622 16.0097 25.8408 15.7491C25.3014 10.7204 21.0575 6.90735 16 6.90735C10.9424 6.90735 6.6985 10.7204 6.15911 15.7491C6.13769 16.0097 6.22792 16.2671 6.40735 16.4573C6.58677 16.6475 6.83852 16.7526 7.09991 16.7463L9.73417 16.7463C10.184 16.754 10.5736 16.4359 10.6562 15.9937C11.0387 13.3338 13.3127 11.3561 16 11.3461L15.9999 11.3461Z"
                    id="Shape" fill="#C3F1FF" fill-rule="evenodd" stroke="none" />
                  <path
                    d="M12.4063 16.7463C12.4063 14.7615 14.0153 13.1525 16.0001 13.1525C17.985 13.1525 19.594 14.7615 19.594 16.7463C19.594 18.7312 17.985 20.3402 16.0001 20.3402C14.0153 20.3402 12.4063 18.7312 12.4063 16.7463Z"
                    id="Circle" fill="#FFFFFF" fill-rule="evenodd" stroke="none" />
                </g>
              </g>
            </g>
          </g>
        </g>
      </g>
      <g id="MsgBox-2" transform="translate(336 0)">
        <path d="M0 0L256 0L256 256L0 256L0 0Z" id="Rectangle" fill="none" fill-rule="evenodd"
          stroke="none" />
        <g id="MsgBox-3" transform="translate(2.612245 23.280613)">
          <path
            d="M0 12.7724L0 164.624C0.564939 171.713 6.48646 177.164 13.5756 177.121L105.368 177.121C105.86 177.163 106.337 177.318 106.761 177.573L125.378 190.031L145.859 203.649L153.235 208.491C153.905 208.998 154.697 209.317 155.531 209.416C158.237 209.674 160.667 207.748 161.043 205.047L161.043 179.463C161.052 178.874 161.304 178.315 161.739 177.919C162.174 177.524 162.753 177.327 163.339 177.377L237.043 177.377C244.185 177.297 250.113 171.817 250.776 164.683L250.776 12.7724C250.073 5.64524 244.18 0.164207 237.043 0L13.5756 1.17302e-06C6.45924 0.145722 0.60087 5.65747 0 12.7724L0 12.7724Z"
            id="Shape" fill="url(#gradient_29)" fill-rule="evenodd" stroke="none" />
          <g id="Content" transform="translate(17.640783 11.023081)">
            <g id="Col-3" transform="translate(159.83499 0)">
              <path
                d="M61.3827 148.812L4.75589 148.812C2.12928 148.812 0 146.466 0 143.573L0 5.23924C0.00157044 2.34255 2.13213 -0.00173213 4.75873 0L61.3827 0C64.0093 -4.16377e-06 66.1386 2.34569 66.1386 5.23924L66.1386 143.573C66.1386 146.466 64.0093 148.812 61.3827 148.812L61.3827 148.812Z"
                id="Shape" fill="url(#gradient_30)" fill-opacity="0.3" fill-rule="evenodd"
                stroke="none" filter="url(#filter_1)" />
              <g id="Success-Check" transform="translate(10.448981 52.976925)">
                <path d="M0 0L44.0947 0L44.0947 44.0947L0 44.0947L0 0Z" id="Rectangle" fill="none"
                  fill-rule="evenodd" stroke="none" />
                <g id="Group-2">
                  <path
                    d="M0 21.7176C0 9.72331 9.86249 0 22.0285 0C34.1945 0 44.057 9.72331 44.057 21.7176C44.057 33.7119 34.1945 43.4353 22.0285 43.4353C9.86249 43.4353 0 33.7119 0 21.7176Z"
                    id="Circle" fill="url(#gradient_31)" fill-rule="evenodd" stroke="none" />
                  <path
                    d="M34.7981 12.392C34.1517 11.7456 33.2749 11.3827 32.3609 11.3827C31.4466 11.3827 30.5698 11.7456 29.9234 12.392L18.5604 23.7467L14.456 19.6816C14.36 19.539 14.2514 19.4054 14.1318 19.2822C13.4898 18.6382 12.619 18.2743 11.7099 18.2698C10.8004 18.2652 9.92612 18.6208 9.27795 19.2585C8.62943 19.8959 8.25959 20.7643 8.24916 21.6734C8.23837 22.5829 8.58767 23.4593 9.22088 24.112L9.17949 24.1534L16.1333 31.0436C16.7801 31.6897 17.6572 32.0525 18.5715 32.0525C19.4859 32.0525 20.3626 31.6897 21.0098 31.0436L34.788 17.2716L34.7984 17.2632C35.1185 16.9435 35.3725 16.5639 35.5454 16.1457C35.7187 15.7279 35.8081 15.2801 35.8081 14.8275C35.8078 14.3752 35.7187 13.927 35.5454 13.5092C35.3722 13.0913 35.1182 12.7118 34.7981 12.392L34.7981 12.392L34.7981 12.392Z"
                    id="Shape" fill="url(#gradient_32)" fill-rule="evenodd" stroke="none" />
                </g>
              </g>
            </g>
            <g id="Col-2" transform="translate(79.91745 0)">
              <path
                d="M61.3827 148.812L4.75589 148.812C2.12928 148.812 0 146.466 0 143.573L0 5.23924C0.00157044 2.34255 2.13213 -0.00173213 4.75873 0L61.3827 0C64.0093 -4.16377e-06 66.1386 2.34569 66.1386 5.23924L66.1386 143.573C66.1386 146.466 64.0093 148.812 61.3827 148.812L61.3827 148.812Z"
                id="Shape" fill="url(#gradient_33)" fill-opacity="0.3" fill-rule="evenodd"
                stroke="none" filter="url(#filter_1)" />
              <g id="Reboot-Icon" transform="translate(11.023092 52.359707)">
                <path
                  d="M44.0924 23.5731L44.0924 20.5735C44.0931 19.9761 43.713 19.4455 43.1494 19.2573L38.1791 17.5911C37.9848 17.5244 37.8297 17.3746 37.7553 17.182L36.6849 14.382C36.6164 14.1998 36.6261 13.9971 36.7118 13.8225L38.9826 9.23552C39.2463 8.70232 39.1417 8.05921 38.7229 7.63834L36.4987 5.40526C36.0804 4.98202 35.4394 4.87668 34.9089 5.14399L30.3576 7.42884C30.1849 7.51565 29.9837 7.5246 29.804 7.45349L27.009 6.37145C26.8252 6.30166 26.6804 6.15511 26.6122 5.96969L24.7162 0.899644C24.5145 0.359312 24.0014 0.00106064 23.4278 8.26381e-08L20.4393 0C19.8523 0.000468439 19.3297 0.3741 19.1361 0.931686L17.4777 5.72568C17.4165 5.90379 17.2855 6.04895 17.1152 6.12744L14.3104 7.42637C14.1221 7.51645 13.9035 7.51645 13.7152 7.42637L9.19327 5.14399C8.66566 4.87449 8.026 4.97366 7.60349 5.39047L5.37438 7.63095C4.95547 8.05377 4.85102 8.69823 5.11472 9.23306L7.39038 13.82C7.47607 13.9947 7.48583 14.1973 7.41732 14.3795L6.33951 17.1943C6.26825 17.3789 6.12211 17.5241 5.93778 17.5936L0.894099 19.4964C0.355348 19.6985 -0.00138188 20.2168 3.86916e-06 20.7953L3.86916e-06 23.7925C-0.000405678 24.3891 0.379779 24.9189 0.942941 25.1062L5.92063 26.7773C6.11535 26.8435 6.27067 26.9935 6.34441 27.1865L7.41732 29.9889C7.48583 30.1711 7.47607 30.3738 7.39038 30.5484L5.11472 35.1157C4.84647 35.6473 4.94502 36.2919 5.35968 36.7178L7.59124 38.9632C8.01304 39.3814 8.65367 39.4808 9.18102 39.2097L13.725 36.9224C13.8979 36.8337 14.1004 36.8238 14.281 36.8953L17.0858 37.9773C17.2667 38.0482 17.4097 38.1921 17.4802 38.3741L19.359 43.21C19.5651 43.7423 20.0748 44.0927 20.6426 44.0924L23.6507 44.0924C24.2442 44.0923 24.7711 43.71 24.9587 43.1435L26.6171 38.1424C26.6825 37.9458 26.8316 37.7886 27.0237 37.7136L29.804 36.6389C29.9837 36.5678 30.1849 36.5768 30.3576 36.6636L34.9089 38.9459C35.4396 39.2117 36.0796 39.1065 36.4987 38.6847L38.7033 36.4664C39.1285 36.0378 39.2277 35.3809 38.9483 34.8446L36.7118 30.5435C36.6208 30.3671 36.6092 30.1598 36.68 29.9742L37.7529 27.1643C37.8238 26.9789 37.97 26.8328 38.1546 26.7626L43.1909 24.8647C43.7296 24.6653 44.0889 24.1506 44.0924 23.5731L44.0924 23.5731ZM22.0779 33.3287C17.545 33.3297 13.4578 30.583 11.7225 26.3694C9.98708 22.1558 10.9453 17.3052 14.1502 14.0797C17.3551 10.8541 22.1755 9.88892 26.3635 11.6341C30.5515 13.3793 33.2823 17.4912 33.2823 22.0523C33.2823 28.2761 28.2682 33.3247 22.0803 33.3287L22.0779 33.3287Z"
                  id="Shape" fill="url(#gradient_34)" fill-rule="evenodd" stroke="none" />
                <path
                  d="M10.871 21.9164C10.871 15.727 15.8885 10.7096 22.0779 10.7096C28.2672 10.7096 33.2847 15.727 33.2847 21.9164C33.2847 28.1058 28.2672 33.1232 22.0779 33.1232C15.8885 33.1232 10.871 28.1058 10.871 21.9164Z"
                  id="Circle" fill="url(#gradient_35)" fill-rule="evenodd" stroke="none" />
                <g id="Group" transform="translate(7.51547 8.748037)">
                  <path
                    d="M23.773 4.20284C23.5942 4.1073 23.4129 4.01667 23.2267 3.92848C20.232 2.41436 16.7229 2.29431 13.6317 3.60024C12.214 3.75618 10.8482 4.22288 9.63156 4.96711C9.44617 5.0753 9.22436 5.10221 9.01848 5.04146C8.8126 4.98072 8.64091 4.83771 8.54395 4.64621C8.26225 4.08526 7.9781 3.5243 7.6817 2.93151C7.49778 2.56593 7.62707 2.12038 7.9781 1.91003C11.4637 -0.363709 15.8917 -0.625489 19.6209 1.2217C21.1791 1.94711 22.5875 2.9583 23.773 4.20284L23.773 4.20284Z"
                    id="Shape" fill="url(#gradient_36)" fill-rule="evenodd" stroke="none" />
                  <path
                    d="M23.2048 19.9169L20.814 15.1476C20.6816 14.88 20.7132 14.5603 20.8955 14.3238C21.0778 14.0874 21.3789 13.9755 21.6714 14.0355L23.1019 14.3368C23.7862 11.727 23.1544 8.94757 21.4093 6.89005C19.5593 4.52343 16.6186 3.27954 13.6319 3.60026C16.723 2.29433 20.2322 2.41438 23.2269 3.92851C23.413 4.01669 23.5943 4.10733 23.7731 4.20286C26.0214 6.73306 27.1335 10.0747 26.8498 13.4476C26.8302 13.9816 26.7885 14.5278 26.7248 15.0863L27.0286 15.15L28.1799 15.395C28.4714 15.4579 28.7017 15.6812 28.7735 15.9706C28.8453 16.26 28.7462 16.5651 28.5179 16.7569L25.2355 19.476C24.9562 19.7062 24.6794 19.9389 24.3953 20.1717C24.212 20.3217 23.9704 20.3803 23.7388 20.3307C23.5071 20.2811 23.3106 20.1288 23.2048 19.9169L23.2048 19.9169Z"
                    id="Shape" fill="url(#gradient_37)" fill-rule="evenodd" stroke="none" />
                  <g id="Group" transform="translate(0 5.9885616)">
                    <path
                      d="M5.02411 16.1451C5.20293 16.2407 5.3842 16.3313 5.57281 16.4195C8.5675 17.9336 12.0766 18.0537 15.1678 16.7477C16.5856 16.5921 17.9515 16.1254 19.168 15.3809C19.3534 15.2727 19.5752 15.2458 19.781 15.3065C19.9869 15.3673 20.1586 15.5103 20.2556 15.7018L21.1178 17.4165C21.3017 17.782 21.1725 18.2276 20.8214 18.4379C17.3358 20.7117 12.9079 20.9735 9.17859 19.1263C7.61986 18.4005 6.21077 17.3894 5.02411 16.1451L5.02411 16.1451Z"
                      id="Shape" fill="url(#gradient_38)" fill-rule="evenodd" stroke="none" />
                    <path
                      d="M5.59472 0.4311L7.98305 5.20043C8.1155 5.46802 8.08389 5.78769 7.90159 6.02416C7.71929 6.26062 7.41819 6.37254 7.1257 6.31254L5.69515 6.01124C5.01087 8.62097 5.64265 11.4004 7.38781 13.458C9.23829 15.8254 12.1801 17.0693 15.1677 16.7477C12.0765 18.0537 8.56736 17.9336 5.57267 16.4195C5.38405 16.3313 5.20278 16.2407 5.02397 16.1451C2.77527 13.6153 1.66388 10.2731 1.94975 6.90044C1.96771 6.36643 2.00935 5.82017 2.07467 5.26167L1.77093 5.19798L0.619626 4.95302C0.326879 4.89183 0.0950114 4.66844 0.0229673 4.37818C-0.0490768 4.08791 0.0514245 3.78203 0.281584 3.59106C1.39369 2.67001 2.4715 1.77837 3.56157 0.872024L4.40177 0.176344C4.58547 0.0262286 4.82742 -0.0323059 5.05942 0.0172381C5.29143 0.0667832 5.48836 0.219042 5.59472 0.4311L5.59472 0.4311Z"
                      id="Shape" fill="url(#gradient_39)" fill-rule="evenodd" stroke="none" />
                  </g>
                </g>
              </g>
            </g>
            <g id="Col-1">
              <path
                d="M61.3827 148.812L4.75589 148.812C2.12928 148.812 0 146.466 0 143.573L0 5.23924C0.00157044 2.34255 2.13213 -0.00173213 4.75873 0L61.3827 0C64.0093 -4.16377e-06 66.1386 2.34569 66.1386 5.23924L66.1386 143.573C66.1386 146.466 64.0093 148.812 61.3827 148.812L61.3827 148.812Z"
                id="Shape" fill="url(#gradient_40)" fill-opacity="0.3" fill-rule="evenodd"
                stroke="none" filter="url(#filter_1)" />
              <g id="Shield" transform="translate(11.023097 52.359707)">
                <path
                  d="M44.0924 20.5857C44.0924 32.4341 26.6759 41.975 22.8966 43.9195C22.4542 44.15 21.8901 44.15 21.4478 43.9195C17.5425 41.975 0 32.4081 0 20.5857L0 6.32607C0 5.70574 0.601613 5.19923 1.35463 5.1853C15.0229 4.90011 11.905 0 22.0462 0C32.1875 0 29.0695 4.90011 42.6122 5.1853C43.3652 5.1994 43.9666 5.70603 43.9664 6.32607L44.0924 20.5857Z"
                  id="Shape" fill="#1B93EB" fill-rule="evenodd" stroke="none" />
                <path
                  d="M42.1337 20.6894C42.1337 31.5785 26.1659 40.3157 22.7015 42.0787C22.296 42.2846 21.7842 42.2846 21.3787 42.0787C17.9143 40.3157 1.94657 31.5785 1.94657 20.6894L1.94657 7.7261C1.88307 7.42747 1.97749 7.12072 2.20609 6.88302C2.43469 6.64531 2.77571 6.49927 3.14337 6.48163C15.5522 6.19644 12.5917 1.73708 22.0401 1.73708C31.4885 1.73708 28.4965 6.30015 40.9369 6.48163C41.6133 6.50868 42.1494 6.96134 42.1652 7.51869L42.1337 20.6894Z"
                  id="Shape" fill="url(#gradient_41)" fill-rule="evenodd" stroke="none" />
                <path
                  d="M22.0461 15.6337C25.7488 15.6474 28.8822 18.3725 29.4093 22.0375C29.523 22.6468 30.0599 23.0851 30.6797 23.0746L34.3094 23.0746C34.6695 23.0831 35.0164 22.9384 35.2636 22.6763C35.5109 22.4142 35.6352 22.0595 35.6057 21.7005C34.8625 14.7715 29.0149 9.51755 22.0461 9.51755C15.0774 9.51755 9.22978 14.7715 8.48656 21.7005C8.45704 22.0595 8.58138 22.4142 8.82861 22.6763C9.07583 22.9384 9.42271 23.0831 9.78288 23.0746L13.4126 23.0746C14.0324 23.0851 14.5692 22.6468 14.683 22.0375C15.2101 18.3725 18.3435 15.6474 22.0461 15.6337L22.0461 15.6337Z"
                  id="Shape" fill="#C3F1FF" fill-rule="evenodd" stroke="none" />
                <path
                  d="M17.0944 23.0746C17.0944 20.3397 19.3115 18.1226 22.0464 18.1226C24.7813 18.1226 26.9983 20.3397 26.9983 23.0746C26.9983 25.8095 24.7813 28.0265 22.0464 28.0265C19.3115 28.0265 17.0944 25.8095 17.0944 23.0746Z"
                  id="Circle" fill="#FFFFFF" fill-rule="evenodd" stroke="none" />
              </g>
            </g>
          </g>
        </g>
      </g>
    </g>
  </g>
</svg>
